<svg xmlns="http://www.w3.org/2000/svg" xmlns:se="http://svg-edit.googlecode.com" xmlns:xlink="http://www.w3.org/1999/xlink" xmlns:dc="http://purl.org/dc/elements/1.1/" xmlns:cc="http://creativecommons.org/ns#" xmlns:rdf="http://www.w3.org/1999/02/22-rdf-syntax-ns#" xmlns:inkscape="http://www.inkscape.org/namespaces/inkscape" width="777" height="480">                                    <title>my vector image</title>                                    <!-- Created with Vector Paint - http://www.vectorpaint.yaks.com/ https://chrome.google.com/webstore/detail/hnbpdiengicdefcjecjbnjnoifekhgdo -->                                    <rect id="backgroundrect" width="100%" height="100%" x="0" y="0" fill="#FFFFFF" stroke="none"/>                                <g class="currentLayer" style=""><title>Layer 1</title><path fill="#4a90d6" fill-opacity="1" stroke="#222222" stroke-opacity="1" stroke-width="2" stroke-dasharray="none" stroke-linejoin="round" stroke-linecap="butt" stroke-dashoffset="" fill-rule="nonzero" opacity="1" marker-start="" marker-mid="" marker-end="" d="M112.31147575378418,214.94262504577637 C112.31147575378418,149.50018119812012 137.65836906433105,96.4918041229248 168.95081901550293,96.4918041229248 C200.2432689666748,96.4918041229248 225.59016227722168,149.50018119812012 225.59016227722168,214.94262504577637 C225.59016227722168,280.38505363464355 200.2432689666748,333.39344596862793 168.95081901550293,333.39344596862793 C137.65836906433105,333.39344596862793 112.31147575378418,280.38505363464355 112.31147575378418,214.94262504577637 z" id="svg_1" class=""/><path fill="#4a90d6" fill-opacity="1" stroke="#222222" stroke-opacity="1" stroke-width="2" stroke-dasharray="none" stroke-linejoin="round" stroke-linecap="butt" stroke-dashoffset="" fill-rule="nonzero" opacity="1" marker-start="" marker-mid="" marker-end="" d="M362.3113408088684,214.94264221191406 C362.3113408088684,149.5001983642578 387.6582341194153,96.49181365966797 418.95068407058716,96.49181365966797 C450.24313402175903,96.49181365966797 475.5900273323059,149.5001983642578 475.5900273323059,214.94264221191406 C475.5900273323059,280.3850402832031 450.24313402175903,333.3934326171875 418.95068407058716,333.3934326171875 C387.6582341194153,333.3934326171875 362.3113408088684,280.3850402832031 362.3113408088684,214.94264221191406 z" class="" id="svg_26"/><path fill="#4a90d6" fill-opacity="1" stroke="#222222" stroke-opacity="1" stroke-width="2" stroke-dasharray="none" stroke-linejoin="round" stroke-linecap="butt" stroke-dashoffset="" fill-rule="nonzero" opacity="1" marker-start="" marker-mid="" marker-end="" d="M112.7546763420105,110.78688049316406 C112.7546763420105,88.20105743408203 152.93894910812378,69.90653991699219 202.54919385910034,69.90653991699219 C252.1594386100769,69.90653991699219 292.3436884880066,88.20105743408203 292.3436884880066,110.78688049316406 C292.3436884880066,133.3727264404297 252.1594386100769,151.667236328125 202.54919385910034,151.667236328125 C152.93894910812378,151.667236328125 112.7546763420105,133.3727264404297 112.7546763420105,110.78688049316406 z" id="svg_6" class="" transform="rotate(-33.8111, 202.549, 110.787)"/><path fill="#4a90d6" fill-opacity="1" stroke="#222222" stroke-opacity="1" stroke-width="2" stroke-dasharray="none" stroke-linejoin="round" stroke-linecap="butt" stroke-dashoffset="" fill-rule="nonzero" opacity="1" marker-start="" marker-mid="" marker-end="" d="M297.180908203125,319.80325269699097 C297.180908203125,297.21743726730347 337.3652038574219,278.9229121208191 386.9754333496094,278.9229121208191 C436.5856628417969,278.9229121208191 476.7699279785156,297.21743726730347 476.7699279785156,319.80325269699097 C476.7699279785156,342.3891291618347 436.5856628417969,360.68362379074097 386.9754333496094,360.68362379074097 C337.3652038574219,360.68362379074097 297.180908203125,342.3891291618347 297.180908203125,319.80325269699097 z" class="" transform="rotate(-34.3543, 386.975, 319.803)" id="svg_25"/><path fill="#4a90d6" fill-opacity="1" stroke="#222222" stroke-opacity="1" stroke-width="2" stroke-dasharray="none" stroke-linejoin="round" stroke-linecap="butt" stroke-dashoffset="" fill-rule="nonzero" opacity="1" marker-start="" marker-mid="" marker-end="" d="M112.75468444824219,319.80328369140625 C112.75468444824219,297.2174530029297 152.93896484375,278.9229431152344 202.54920959472656,278.9229431152344 C252.15945434570312,278.9229431152344 292.34368896484375,297.2174530029297 292.34368896484375,319.80328369140625 C292.34368896484375,342.3891296386719 252.15945434570312,360.6836395263672 202.54920959472656,360.6836395263672 C152.93896484375,360.6836395263672 112.75468444824219,342.3891296386719 112.75468444824219,319.80328369140625 z" class="" transform="rotate(34.2454, 202.549, 319.803)" id="svg_11"/><path fill="#4a90d6" fill-opacity="1" stroke="#222222" stroke-opacity="1" stroke-width="2" stroke-dasharray="none" stroke-linejoin="round" stroke-linecap="butt" stroke-dashoffset="" fill-rule="nonzero" opacity="1" marker-start="" marker-mid="" marker-end="" d="M295.5415644645691,110.78689575195312 C295.5415644645691,88.20108032226562 335.72586011886597,69.90655517578125 385.33608961105347,69.90655517578125 C434.94631910324097,69.90655517578125 475.1305537223816,88.20108032226562 475.1305537223816,110.78689575195312 C475.1305537223816,133.37274169921875 434.94631910324097,151.66726684570312 385.33608961105347,151.66726684570312 C335.72586011886597,151.66726684570312 295.5415644645691,133.37274169921875 295.5415644645691,110.78689575195312 z" class="" transform="rotate(34.2454, 385.336, 110.787)" id="svg_24"/><path fill="#4a90d6" fill-opacity="1" stroke="#222222" stroke-opacity="1" stroke-width="2" stroke-dasharray="none" stroke-linejoin="round" stroke-linecap="butt" stroke-dashoffset="" fill-rule="nonzero" opacity="1" marker-start="" marker-mid="" marker-end="" d="M157.59017944335938,214.51638841629028 C157.59017944335938,186.83320665359497 218.69781494140625,164.40982103347778 294.13934326171875,164.40982103347778 C369.58087158203125,164.40982103347778 430.68853759765625,186.83320665359497 430.68853759765625,214.51638841629028 C430.68853759765625,242.19955492019653 369.58087158203125,264.6229557991028 294.13934326171875,264.6229557991028 C218.69781494140625,264.6229557991028 157.59017944335938,242.19955492019653 157.59017944335938,214.51638841629028 z" id="svg_27" class=""/></g></svg>