<svg xmlns="http://www.w3.org/2000/svg" xmlns:se="http://svg-edit.googlecode.com" xmlns:xlink="http://www.w3.org/1999/xlink" xmlns:dc="http://purl.org/dc/elements/1.1/" xmlns:cc="http://creativecommons.org/ns#" xmlns:rdf="http://www.w3.org/1999/02/22-rdf-syntax-ns#" xmlns:inkscape="http://www.inkscape.org/namespaces/inkscape" width="777" height="480">                                    <title>my vector image</title>                                    <!-- Created with Vector Paint - http://www.vectorpaint.yaks.com/ https://chrome.google.com/webstore/detail/hnbpdiengicdefcjecjbnjnoifekhgdo -->                                    <rect id="backgroundrect" width="100%" height="100%" x="0" y="0" fill="#FFFFFF" stroke="none"/>                                <g class="currentLayer" style=""><title>Layer 1</title><path fill="#4a90d6" fill-opacity="1" stroke="#222222" stroke-opacity="1" stroke-width="2" stroke-dasharray="none" stroke-linejoin="round" stroke-linecap="butt" stroke-dashoffset="" fill-rule="nonzero" opacity="1" marker-start="" marker-mid="" marker-end="" d="M304.5617985725403,320.0878601074219 C304.5617985725403,301.21636962890625 341.3432011604309,285.9304504394531 386.7523503303528,285.9304504394531 C432.16149950027466,285.9304504394531 468.94287157058716,301.21636962890625 468.94287157058716,320.0878601074219 C468.94287157058716,338.9593811035156 432.16149950027466,354.2452087402344 386.7523503303528,354.2452087402344 C341.3432011604309,354.2452087402344 304.5617985725403,338.9593811035156 304.5617985725403,320.0878601074219 z" class="" transform="rotate(-33.8111, 386.752, 320.088)" id="svg_32"/><path fill="#ecabab" fill-opacity="1" stroke="#222222" stroke-opacity="1" stroke-width="2" stroke-dasharray="none" stroke-linejoin="round" stroke-linecap="butt" stroke-dashoffset="" fill-rule="nonzero" opacity="1" marker-start="" marker-mid="" marker-end="" d="M112.31147575378418,214.94262504577637 C112.31147575378418,149.50018119812012 137.65836906433105,96.4918041229248 168.95081901550293,96.4918041229248 C200.2432689666748,96.4918041229248 225.59016227722168,149.50018119812012 225.59016227722168,214.94262504577637 C225.59016227722168,280.38505363464355 200.2432689666748,333.39344596862793 168.95081901550293,333.39344596862793 C137.65836906433105,333.39344596862793 112.31147575378418,280.38505363464355 112.31147575378418,214.94262504577637 z" id="svg_1" class=""/><path fill="#4a90d6" fill-opacity="1" stroke="#222222" stroke-opacity="1" stroke-width="2" stroke-dasharray="none" stroke-linejoin="round" stroke-linecap="butt" stroke-dashoffset="" fill-rule="nonzero" opacity="1" marker-start="" marker-mid="" marker-end="" d="M118.86886644363403,214.12295532226562 C118.86886644363403,155.02052307128906 141.28125047683716,107.14754486083984 168.95083665847778,107.14754486083984 C196.6204228401184,107.14754486083984 219.03280687332153,155.02052307128906 219.03280687332153,214.12295532226562 C219.03280687332153,273.225341796875 196.6204228401184,321.09832763671875 168.95083665847778,321.09832763671875 C141.28125047683716,321.09832763671875 118.86886644363403,273.225341796875 118.86886644363403,214.12295532226562 z" class="" id="svg_30"/><path fill="#ecabab" fill-opacity="1" stroke="#222222" stroke-opacity="1" stroke-width="2" stroke-dasharray="none" stroke-linejoin="round" stroke-linecap="butt" stroke-dashoffset="" fill-rule="nonzero" opacity="1" marker-start="" marker-mid="" marker-end="" d="M362.3113408088684,214.94264221191406 C362.3113408088684,149.5001983642578 387.6582341194153,96.49181365966797 418.95068407058716,96.49181365966797 C450.24313402175903,96.49181365966797 475.5900273323059,149.5001983642578 475.5900273323059,214.94264221191406 C475.5900273323059,280.3850402832031 450.24313402175903,333.3934326171875 418.95068407058716,333.3934326171875 C387.6582341194153,333.3934326171875 362.3113408088684,280.3850402832031 362.3113408088684,214.94264221191406 z" class="" id="svg_26"/><path fill="#4a90d6" fill-opacity="1" stroke="#222222" stroke-opacity="1" stroke-width="2" stroke-dasharray="none" stroke-linejoin="round" stroke-linecap="butt" stroke-dashoffset="" fill-rule="nonzero" opacity="1" marker-start="" marker-mid="" marker-end="" d="M368.8687434196472,216.5819854736328 C368.8687434196472,157.47955322265625 391.28112745285034,109.6065673828125 418.95071363449097,109.6065673828125 C446.6202998161316,109.6065673828125 469.0326838493347,157.47955322265625 469.0326838493347,216.5819854736328 C469.0326838493347,275.6843566894531 446.6202998161316,323.5573425292969 418.95071363449097,323.5573425292969 C391.28112745285034,323.5573425292969 368.8687434196472,275.6843566894531 368.8687434196472,216.5819854736328 z" class="" id="svg_34"/><path fill="#ecabab" fill-opacity="1" stroke="#222222" stroke-opacity="1" stroke-width="2" stroke-dasharray="none" stroke-linejoin="round" stroke-linecap="butt" stroke-dashoffset="" fill-rule="nonzero" opacity="1" marker-start="" marker-mid="" marker-end="" d="M112.7546763420105,110.78688049316406 C112.7546763420105,88.20105743408203 152.93894910812378,69.90653991699219 202.54919385910034,69.90653991699219 C252.1594386100769,69.90653991699219 292.3436884880066,88.20105743408203 292.3436884880066,110.78688049316406 C292.3436884880066,133.3727264404297 252.1594386100769,151.667236328125 202.54919385910034,151.667236328125 C152.93894910812378,151.667236328125 112.7546763420105,133.3727264404297 112.7546763420105,110.78688049316406 z" id="svg_6" class="" transform="rotate(-33.8111, 202.549, 110.787)"/><path fill="#ecabab" fill-opacity="1" stroke="#222222" stroke-opacity="1" stroke-width="2" stroke-dasharray="none" stroke-linejoin="round" stroke-linecap="butt" stroke-dashoffset="" fill-rule="nonzero" opacity="1" marker-start="" marker-mid="" marker-end="" d="M297.180908203125,319.80325269699097 C297.180908203125,297.21743726730347 337.3652038574219,278.9229121208191 386.9754333496094,278.9229121208191 C436.5856628417969,278.9229121208191 476.7699279785156,297.21743726730347 476.7699279785156,319.80325269699097 C476.7699279785156,342.3891291618347 436.5856628417969,360.68362379074097 386.9754333496094,360.68362379074097 C337.3652038574219,360.68362379074097 297.180908203125,342.3891291618347 297.180908203125,319.80325269699097 z" class="" transform="rotate(-34.3543, 386.975, 319.803)" id="svg_25"/><path fill="#ecabab" fill-opacity="1" stroke="#222222" stroke-opacity="1" stroke-width="2" stroke-dasharray="none" stroke-linejoin="round" stroke-linecap="butt" stroke-dashoffset="" fill-rule="nonzero" opacity="1" marker-start="" marker-mid="" marker-end="" d="M112.75468444824219,319.80328369140625 C112.75468444824219,297.2174530029297 152.93896484375,278.9229431152344 202.54920959472656,278.9229431152344 C252.15945434570312,278.9229431152344 292.34368896484375,297.2174530029297 292.34368896484375,319.80328369140625 C292.34368896484375,342.3891296386719 252.15945434570312,360.6836395263672 202.54920959472656,360.6836395263672 C152.93896484375,360.6836395263672 112.75468444824219,342.3891296386719 112.75468444824219,319.80328369140625 z" class="" transform="rotate(34.2454, 202.549, 319.803)" id="svg_11"/><path fill="#4a90d6" fill-opacity="1" stroke="#222222" stroke-opacity="1" stroke-width="2" stroke-dasharray="none" stroke-linejoin="round" stroke-linecap="butt" stroke-dashoffset="" fill-rule="nonzero" opacity="1" marker-start="" marker-mid="" marker-end="" d="M120.74363209307194,319.93313708901405 C120.74363209307194,301.58462634682655 157.43797565996647,286.7223521769047 202.73968769609928,286.7223521769047 C248.04136921465397,286.7223521769047 284.7356593757868,301.58462634682655 284.7356593757868,319.93313708901405 C284.7356593757868,338.28164783120155 248.04136921465397,353.1439220011234 202.73968769609928,353.1439220011234 C157.43797565996647,353.1439220011234 120.74363209307194,338.28164783120155 120.74363209307194,319.93313708901405 z" class="" transform="rotate(34.2454, 202.74, 319.933)" id="svg_31"/><path fill="#ecabab" fill-opacity="1" stroke="#222222" stroke-opacity="1" stroke-width="2" stroke-dasharray="none" stroke-linejoin="round" stroke-linecap="butt" stroke-dashoffset="" fill-rule="nonzero" opacity="1" marker-start="" marker-mid="" marker-end="" d="M295.5415644645691,110.78689575195312 C295.5415644645691,88.20108032226562 335.72586011886597,69.90655517578125 385.33608961105347,69.90655517578125 C434.94631910324097,69.90655517578125 475.1305537223816,88.20108032226562 475.1305537223816,110.78689575195312 C475.1305537223816,133.37274169921875 434.94631910324097,151.66726684570312 385.33608961105347,151.66726684570312 C335.72586011886597,151.66726684570312 295.5415644645691,133.37274169921875 295.5415644645691,110.78689575195312 z" class="" transform="rotate(34.2454, 385.336, 110.787)" id="svg_24"/><path fill="#ecabab" fill-opacity="1" stroke="#222222" stroke-opacity="1" stroke-width="2" stroke-dasharray="none" stroke-linejoin="round" stroke-linecap="butt" stroke-dashoffset="" fill-rule="nonzero" opacity="1" marker-start="" marker-mid="" marker-end="" d="M157.59017944335938,214.51638841629028 C157.59017944335938,186.83320665359497 218.69781494140625,164.40982103347778 294.13934326171875,164.40982103347778 C369.58087158203125,164.40982103347778 430.68853759765625,186.83320665359497 430.68853759765625,214.51638841629028 C430.68853759765625,242.19955492019653 369.58087158203125,264.6229557991028 294.13934326171875,264.6229557991028 C218.69781494140625,264.6229557991028 157.59017944335938,242.19955492019653 157.59017944335938,214.51638841629028 z" id="svg_27" class=""/><path fill="#4a90d6" fill-opacity="1" stroke="#222222" stroke-opacity="1" stroke-width="2" stroke-dasharray="none" stroke-linejoin="round" stroke-linecap="butt" stroke-dashoffset="" fill-rule="nonzero" opacity="1" marker-start="" marker-mid="" marker-end="" d="M166.6065673828125,214.51638841629028 C166.6065673828125,190.45605516433716 223.86265563964844,170.96719408035278 294.5491638183594,170.96719408035278 C365.2356872558594,170.96719408035278 422.4918212890625,190.45605516433716 422.4918212890625,214.51638841629028 C422.4918212890625,238.57669115066528 365.2356872558594,258.0655827522278 294.5491638183594,258.0655827522278 C223.86265563964844,258.0655827522278 166.6065673828125,238.57669115066528 166.6065673828125,214.51638841629028 z" class="" id="svg_35"/><path fill="#4a90d6" fill-opacity="1" stroke="#222222" stroke-opacity="1" stroke-width="2" stroke-dasharray="none" stroke-linejoin="round" stroke-linecap="butt" stroke-dashoffset="" fill-rule="nonzero" opacity="1" marker-start="" marker-mid="" marker-end="" d="M302.7108459472656,109.26372784376144 C302.7108459472656,90.91521710157394 339.40521240234375,76.05294293165207 384.7069091796875,76.05294293165207 C430.00860595703125,76.05294293165207 466.702880859375,90.91521710157394 466.702880859375,109.26372784376144 C466.702880859375,127.61223858594894 430.00860595703125,142.47451275587082 384.7069091796875,142.47451275587082 C339.40521240234375,142.47451275587082 302.7108459472656,127.61223858594894 302.7108459472656,109.26372784376144 z" class="" transform="rotate(34.1408, 384.707, 108.43)" id="svg_33"/><path fill="#4a90d6" fill-opacity="1" stroke="#222222" stroke-opacity="1" stroke-width="2" stroke-dasharray="none" stroke-linejoin="round" stroke-linecap="butt" stroke-dashoffset="" fill-rule="nonzero" opacity="1" marker-start="" marker-mid="" marker-end="" d="M121.32427215576172,110.19004106521606 C121.32427215576172,91.06656694412231 157.80088806152344,75.57655382156372 202.83377075195312,75.57655382156372 C247.86666870117188,75.57655382156372 284.34326171875,91.06656694412231 284.34326171875,110.19004106521606 C284.34326171875,129.31355333328247 247.86666870117188,144.80354356765747 202.83377075195312,144.80354356765747 C157.80088806152344,144.80354356765747 121.32427215576172,129.31355333328247 121.32427215576172,110.19004106521606 z" class="" transform="rotate(-33.8111, 202.834, 110.19)" id="svg_29"/><path fill="none" fill-opacity="1" stroke="#222222" stroke-opacity="1" stroke-width="2" stroke-dasharray="none" stroke-linejoin="round" stroke-linecap="butt" stroke-dashoffset="" fill-rule="nonzero" opacity="1" marker-start="" marker-mid="" marker-end="" d="M95.78687286376953,216.46722282127666 C95.78687286376953,111.87071863561141 184.339599609375,27.14754993871975 293.6639404296875,27.14754993871975 C402.98828125,27.14754993871975 491.541015625,111.87071863561141 491.541015625,216.46722282127666 C491.541015625,321.0637270069419 402.98828125,405.7868957038336 293.6639404296875,405.7868957038336 C184.339599609375,405.7868957038336 95.78687286376953,321.0637270069419 95.78687286376953,216.46722282127666 z" id="svg_2" class=""/><path fill="none" fill-opacity="1" stroke="#222222" stroke-opacity="1" stroke-width="2" stroke-dasharray="2,2" stroke-linejoin="round" stroke-linecap="butt" stroke-dashoffset="" fill-rule="nonzero" opacity="1" marker-start="" marker-mid="" marker-end="" d="M89.22949981689453,216.05740308761597 C89.22949981689453,108.06446027755737 180.71673583984375,20.590177059173584 293.6639404296875,20.590177059173584 C406.61114501953125,20.590177059173584 498.098388671875,108.06446027755737 498.098388671875,216.05740308761597 C498.098388671875,324.05032300949097 406.61114501953125,411.5246272087097 293.6639404296875,411.5246272087097 C180.71673583984375,411.5246272087097 89.22949981689453,324.05032300949097 89.22949981689453,216.05740308761597 z" class="selected" id="svg_4"/></g></svg>